<svg width="40" height="40" viewBox="0 0 41 40" fill="none" xmlns="http://www.w3.org/2000/svg">
<path d="M37.783 40L28.4695 30.0804C27.0318 31.2842 25.3631 32.2163 23.4634 32.8769C21.5637 33.5375 19.5977 33.8679 17.5654 33.8679C12.6561 33.8679 8.50124 32.2232 5.10077 28.934C1.70026 25.6447 0 21.6462 0 16.9383C0 12.2304 1.69932 8.23043 5.09796 4.93829C8.49655 1.6461 12.6316 0 17.5031 0C22.3746 0 26.5107 1.64505 29.9114 4.93515C33.3122 8.22524 35.0126 12.225 35.0126 16.9344C35.0126 18.903 34.6667 20.8072 33.975 22.6472C33.2833 24.4872 32.3087 26.1321 31.0512 27.5818L40.3796 37.487L37.783 40ZM17.5359 30.3598C21.4021 30.3598 24.6773 29.0577 27.3615 26.4534C30.0457 23.8491 31.3878 20.676 31.3878 16.9339C31.3878 13.1919 30.0457 10.0188 27.3615 7.41448C24.6773 4.8102 21.4021 3.50805 17.5359 3.50805C13.6531 3.50805 10.3639 4.8102 7.66825 7.41448C4.97256 10.0188 3.62471 13.1919 3.62471 16.9339C3.62471 20.676 4.97256 23.8491 7.66825 26.4534C10.3639 29.0577 13.6531 30.3598 17.5359 30.3598Z" fill="#1C1B1F"/>
</svg>
